<svg aria-hidden="true" style="position:absolute;width:0;height:0;overflow:hidden" xmlns="http://www.w3.org/2000/svg">
  <defs>
    <symbol id="burger" viewBox="0 0 34 32">
<path fill="#fff" style="fill: var(--color8, #fff)" d="M9.898 15.273c-0.725 0-1.312 0.588-1.312 1.312v0c0 0.725 0.588 1.312 1.312 1.312h14.546c0.725 0 1.312-0.588 1.312-1.312v0c0-0.725-0.588-1.312-1.312-1.312h-14.546zM0 23.242c0 0.742 0.602 1.344 1.344 1.344h23.069c0.742 0 1.344-0.602 1.344-1.344v0c0-0.742-0.602-1.344-1.344-1.344h-23.069c-0.742 0-1.344 0.602-1.344 1.344v0zM9.929 8.585c-0.742 0-1.344 0.602-1.344 1.344v0c0 0.742 0.602 1.344 1.344 1.344h14.483c0.742 0 1.344-0.602 1.344-1.344v0c0-0.742-0.602-1.344-1.344-1.344h-14.483z"></path>
</symbol>
<symbol id="close" viewBox="0 0 32 32">
<path fill="none" stroke="#fbfbfb" style="stroke: var(--color8, #fbfbfb)" stroke-linejoin="round" stroke-linecap="round" stroke-miterlimit="4" stroke-width="3.2" d="M24 8l-16 16"></path>
<path fill="none" stroke="#fbfbfb" style="stroke: var(--color8, #fbfbfb)" stroke-linejoin="round" stroke-linecap="round" stroke-miterlimit="4" stroke-width="3.2" d="M8 8l16 16"></path>
</symbol>

    <symbol id="icon-group-18" viewBox="0 0 38 24">
      <path fill="#b4019c" style="fill: var(--color1, #b4019c)" d="M25.82 10.184c2.409 1.975 2.779 5.551 0.827 7.988s-5.486 2.812-7.895 0.837c-2.409-1.975-2.779-5.551-0.827-7.988s5.486-2.812 7.895-0.837z"></path>
      <path fill="#b44c01" style="fill: var(--color2, #b44c01)" d="M32.324 9.661c2.409 1.975 2.779 5.551 0.827 7.988s-5.486 2.812-7.895 0.837c-2.409-1.975-2.779-5.551-0.827-7.988s5.486-2.812 7.895-0.837z"></path>
      <path fill="#01b49f" style="fill: var(--color3, #01b49f)" d="M20.195 5.040c2.409 1.975 2.779 5.551 0.827 7.988s-5.486 2.812-7.895 0.837c-2.409-1.975-2.779-5.551-0.827-7.988s5.486-2.812 7.895-0.837z"></path>
      <path fill="#3cc064" style="fill: var(--color4, #3cc064)" d="M11.481 7.47c2.409 1.975 2.779 5.551 0.827 7.988s-5.486 2.812-7.895 0.837c-2.409-1.975-2.779-5.551-0.827-7.988s5.486-2.812 7.895-0.837z"></path>
      <path fill="#4c01b4" style="fill: var(--color5, #4c01b4)" d="M29.092 13.476c1.325 1.086 1.529 3.054 0.455 4.395s-3.018 1.547-4.343 0.461c-1.325-1.086-1.529-3.054-0.455-4.395s3.018-1.547 4.343-0.461z"></path>
      <path fill="#01b437" style="fill: var(--color6, #01b437)" d="M26.646 5.877c2.409 1.975 2.779 5.551 0.827 7.988s-5.486 2.812-7.895 0.837c-2.409-1.975-2.779-5.551-0.827-7.988s5.486-2.812 7.895-0.837z"></path>
      <path fill="#0178b4" style="fill: var(--color7, #0178b4)" d="M31.498 5.875c2.409 1.975 2.779 5.551 0.827 7.988s-5.486 2.812-7.895 0.837c-2.409-1.975-2.779-5.551-0.827-7.988s5.486-2.812 7.895-0.837z"></path>
    </symbol>
    <symbol id="arrow" viewBox="0 0 18 18">
<path d="M8.29 1.289l-5.996 6c-0.391 0.391-0.391 1.026 0 1.417s1.025 0.391 1.417 0l4.29-4.293v11.59c0 0.553 0.448 1.001 1 1.001s1-0.448 1-1.001v-11.59l4.29 4.292c0.391 0.391 1.025 0.391 1.417-0.001s0.391-1.026 0-1.417l-5.997-6c-0.196-0.196-0.453-0.294-0.71-0.294s-0.514 0.097-0.71 0.294z"></path>
</symbol>
<symbol id="instagram" viewBox="0 0 32 32">
<path d="M16 2.881c4.275 0 4.781 0.019 6.462 0.094 1.563 0.069 2.406 0.331 2.969 0.55 0.744 0.288 1.281 0.638 1.837 1.194 0.563 0.563 0.906 1.094 1.2 1.838 0.219 0.563 0.481 1.412 0.55 2.969 0.075 1.688 0.094 2.194 0.094 6.463s-0.019 4.781-0.094 6.463c-0.069 1.563-0.331 2.406-0.55 2.969-0.288 0.744-0.637 1.281-1.194 1.837-0.563 0.563-1.094 0.906-1.837 1.2-0.563 0.219-1.413 0.481-2.969 0.55-1.688 0.075-2.194 0.094-6.463 0.094s-4.781-0.019-6.463-0.094c-1.563-0.069-2.406-0.331-2.969-0.55-0.744-0.288-1.281-0.637-1.838-1.194-0.563-0.563-0.906-1.094-1.2-1.837-0.219-0.563-0.481-1.413-0.55-2.969-0.075-1.688-0.094-2.194-0.094-6.463s0.019-4.781 0.094-6.463c0.069-1.563 0.331-2.406 0.55-2.969 0.288-0.744 0.638-1.281 1.194-1.838 0.563-0.563 1.094-0.906 1.838-1.2 0.563-0.219 1.412-0.481 2.969-0.55 1.681-0.075 2.188-0.094 6.463-0.094zM16 0c-4.344 0-4.887 0.019-6.594 0.094-1.7 0.075-2.869 0.35-3.881 0.744-1.056 0.412-1.95 0.956-2.837 1.85-0.894 0.888-1.438 1.781-1.85 2.831-0.394 1.019-0.669 2.181-0.744 3.881-0.075 1.713-0.094 2.256-0.094 6.6s0.019 4.887 0.094 6.594c0.075 1.7 0.35 2.869 0.744 3.881 0.413 1.056 0.956 1.95 1.85 2.837 0.887 0.887 1.781 1.438 2.831 1.844 1.019 0.394 2.181 0.669 3.881 0.744 1.706 0.075 2.25 0.094 6.594 0.094s4.888-0.019 6.594-0.094c1.7-0.075 2.869-0.35 3.881-0.744 1.050-0.406 1.944-0.956 2.831-1.844s1.438-1.781 1.844-2.831c0.394-1.019 0.669-2.181 0.744-3.881 0.075-1.706 0.094-2.25 0.094-6.594s-0.019-4.887-0.094-6.594c-0.075-1.7-0.35-2.869-0.744-3.881-0.394-1.063-0.938-1.956-1.831-2.844-0.887-0.887-1.781-1.438-2.831-1.844-1.019-0.394-2.181-0.669-3.881-0.744-1.712-0.081-2.256-0.1-6.6-0.1v0z"></path>
<path d="M16 7.781c-4.537 0-8.219 3.681-8.219 8.219s3.681 8.219 8.219 8.219 8.219-3.681 8.219-8.219c0-4.537-3.681-8.219-8.219-8.219zM16 21.331c-2.944 0-5.331-2.387-5.331-5.331s2.387-5.331 5.331-5.331c2.944 0 5.331 2.387 5.331 5.331s-2.387 5.331-5.331 5.331z"></path>
<path d="M26.462 7.456c0 1.060-0.859 1.919-1.919 1.919s-1.919-0.859-1.919-1.919c0-1.060 0.859-1.919 1.919-1.919s1.919 0.859 1.919 1.919z"></path>
</symbol>
<symbol id="facebook" viewBox="0 0 32 32">
<path d="M29 0h-26c-1.65 0-3 1.35-3 3v26c0 1.65 1.35 3 3 3h13v-14h-4v-4h4v-2c0-3.306 2.694-6 6-6h4v4h-4c-1.1 0-2 0.9-2 2v2h6l-1 4h-5v14h9c1.65 0 3-1.35 3-3v-26c0-1.65-1.35-3-3-3z"></path>
</symbol>
<symbol id="icon-group-49" viewBox="0 0 21 24">
<path fill="#00fff2" style="fill: var(--color1, #00fff2)" d="M18.453 5.535c1.195 0.968 1.388 2.709 0.432 3.889s-2.699 1.351-3.894 0.383c-1.195-0.968-1.388-2.709-0.432-3.889s2.699-1.351 3.894-0.383z"></path>
<path fill="#7b00ff" style="fill: var(--color2, #7b00ff)" d="M22.060 8.028c1.195 0.968 1.388 2.709 0.432 3.889s-2.699 1.351-3.894 0.383c-1.195-0.968-1.388-2.709-0.432-3.889s2.699-1.351 3.894-0.383z"></path>
<path fill="#f7ff00" style="fill: var(--color3, #f7ff00)" d="M8.786 8.816c1.642 1.33 1.908 3.723 0.594 5.344s-3.71 1.857-5.351 0.527c-1.642-1.33-1.908-3.723-0.594-5.344s3.71-1.857 5.351-0.527z"></path>
<path fill="#b49001" style="fill: var(--color4, #b49001)" d="M7.708 5.552c1.906 1.544 2.199 4.341 0.655 6.246s-4.341 2.199-6.246 0.655c-1.906-1.544-2.199-4.341-0.655-6.246s4.341-2.199 6.246-0.655z"></path>
<path fill="#b4017e" style="fill: var(--color5, #b4017e)" d="M3.982 8.383c1.998 1.619 2.306 4.552 0.686 6.551s-4.552 2.306-6.551 0.686c-1.998-1.619-2.306-4.552-0.686-6.551s4.552-2.306 6.551-0.686z"></path>
<path fill="#04d1ff" style="fill: var(--color6, #04d1ff)" opacity="0.72" d="M14.377 9.816c1.624 1.316 1.874 3.7 0.558 5.324s-3.7 1.874-5.324 0.558c-1.624-1.316-1.874-3.7-0.558-5.324s3.7-1.874 5.324-0.558z"></path>
<path fill="#10b401" style="fill: var(--color7, #10b401)" d="M12.601 6.056c1.29 1.045 1.488 2.939 0.443 4.229s-2.939 1.488-4.229 0.443c-1.29-1.045-1.488-2.939-0.443-4.229s2.939-1.488 4.229-0.443z"></path>
<path fill="#01b481" style="fill: var(--color8, #01b481)" d="M19.39 9.487c1.29 1.045 1.488 2.939 0.443 4.229s-2.939 1.488-4.229 0.443c-1.29-1.045-1.488-2.939-0.443-4.229s2.939-1.488 4.229-0.443z"></path>
<path fill="#69b401" style="fill: var(--color9, #69b401)" d="M5.506 12.346c1.29 1.045 1.488 2.939 0.443 4.229s-2.939 1.488-4.229 0.443c-1.29-1.045-1.488-2.939-0.443-4.229s2.939-1.488 4.229-0.443z"></path>
</symbol>
<symbol id="icon-group-42" viewBox="0 0 28 24">
<path fill="#46b401" style="fill: var(--color1, #46b401)" d="M12.366 8.267c2.584 2.093 2.981 5.885 0.887 8.469s-5.885 2.981-8.469 0.887c-2.584-2.093-2.981-5.885-0.887-8.469s5.885-2.981 8.469-0.887z"></path>
<path fill="#00ffc4" style="fill: var(--color2, #00ffc4)" d="M8.912 13.303c1.262 1.022 1.456 2.874 0.433 4.135s-2.874 1.456-4.135 0.433c-1.262-1.022-1.456-2.874-0.433-4.135s2.874-1.456 4.135-0.433z"></path>
<path fill="#0059ff" style="fill: var(--color3, #0059ff)" d="M11.645 15.612c1.262 1.022 1.456 2.874 0.433 4.135s-2.874 1.456-4.135 0.433c-1.262-1.022-1.456-2.874-0.433-4.135s2.874-1.456 4.135-0.433z"></path>
<path fill="#ff0" style="fill: var(--color4, #ff0)" d="M13.754 11.379c1.492 1.209 1.714 3.408 0.496 4.912s-3.416 1.742-4.908 0.533c-1.492-1.209-1.714-3.408-0.496-4.912s3.416-1.742 4.908-0.533z"></path>
<path fill="#f0d" style="fill: var(--color5, #f0d)" d="M23.819 3.729c1.492 1.209 1.714 3.408 0.496 4.912s-3.416 1.742-4.908 0.533c-1.492-1.209-1.714-3.408-0.496-4.912s3.416-1.742 4.908-0.533z"></path>
<path fill="#0084ff" style="fill: var(--color6, #0084ff)" d="M25.013 6.77c1.492 1.209 1.714 3.408 0.496 4.912s-3.416 1.742-4.908 0.533c-1.492-1.209-1.714-3.408-0.496-4.912s3.416-1.742 4.908-0.533z"></path>
<path fill="#ae00ff" style="fill: var(--color7, #ae00ff)" d="M25.352 5.078c1.14 0.923 1.309 2.603 0.379 3.751s-2.608 1.33-3.748 0.407c-1.14-0.923-1.309-2.603-0.379-3.751s2.608-1.33 3.748-0.407z"></path>
</symbol>
<symbol id="icon-group-43" viewBox="0 0 65 24">
<path fill="#00ff37" style="fill: var(--color1, #00ff37)" d="M61.899 8.393c1.719 1.392 1.974 3.925 0.571 5.656s-3.934 2.006-5.652 0.614c-1.719-1.392-1.974-3.925-0.571-5.657s3.934-2.006 5.652-0.614z"></path>
<path fill="#ff1e00" style="fill: var(--color2, #ff1e00)" d="M36.4 19.963c-2.195-0.275-3.749-2.291-3.472-4.502s2.281-3.781 4.476-3.506c2.195 0.275 3.749 2.291 3.472 4.502s-2.281 3.781-4.476 3.506z"></path>
<path fill="#ff02d1" style="fill: var(--color3, #ff02d1)" d="M12.563 12.716c-2.195-0.275-3.749-2.291-3.472-4.502s2.281-3.781 4.476-3.506c2.195 0.275 3.749 2.291 3.472 4.502s-2.281 3.781-4.476 3.506z"></path>
<path fill="#1a00ff" style="fill: var(--color4, #1a00ff)" d="M3.637 16.001c-2.195-0.275-3.749-2.291-3.472-4.502s2.281-3.781 4.476-3.506c2.195 0.275 3.749 2.291 3.472 4.502s-2.281 3.781-4.476 3.506z"></path>
<path fill="#0eb0e6" style="fill: var(--color5, #0eb0e6)" d="M54.202 10.052c1.719 1.392 1.974 3.925 0.571 5.656s-3.934 2.006-5.652 0.614c-1.719-1.392-1.974-3.925-0.571-5.656s3.934-2.006 5.652-0.614z"></path>
<path fill="#0eb0e6" style="fill: var(--color5, #0eb0e6)" d="M42.060 14.49c-2.195-0.275-3.749-2.291-3.472-4.502s2.281-3.781 4.476-3.506c2.195 0.275 3.749 2.291 3.472 4.502s-2.281 3.781-4.476 3.506z"></path>
</symbol>
<symbol id="icon-group-47" viewBox="0 0 41 24">
<path fill="#ff006f" style="fill: var(--color1, #ff006f)" d="M14.536 7.758c2.33 1.888 2.677 5.322 0.774 7.669s-5.333 2.72-7.663 0.832c-2.33-1.888-2.677-5.322-0.774-7.669s5.333-2.72 7.663-0.832z"></path>
<path fill="#a5930e" style="fill: var(--color2, #a5930e)" d="M20.395 8.971c1.66 1.345 1.907 3.791 0.552 5.463s-3.799 1.938-5.459 0.593c-1.66-1.345-1.907-3.791-0.552-5.463s3.799-1.938 5.459-0.593z"></path>
<path fill="#0ea52e" style="fill: var(--color3, #0ea52e)" d="M13.326 10.814c2.076 1.682 2.385 4.742 0.69 6.834s-4.752 2.424-6.828 0.742c-2.076-1.682-2.385-4.742-0.69-6.834s4.752-2.424 6.828-0.742z"></path>
<path fill="#0e61a5" style="fill: var(--color4, #0e61a5)" d="M14.931 7.203c1.66 1.345 1.907 3.791 0.552 5.463s-3.799 1.938-5.459 0.593c-1.66-1.345-1.907-3.791-0.552-5.463s3.799-1.938 5.459-0.593z"></path>
<path fill="#0084ff" style="fill: var(--color5, #0084ff)" d="M33.49 7.49c2.33 1.888 2.677 5.322 0.774 7.669s-5.333 2.72-7.663 0.832c-2.33-1.888-2.677-5.322-0.774-7.669s5.333-2.72 7.663-0.832z"></path>
<path fill="#0ea536" style="fill: var(--color6, #0ea536)" d="M31.045 6.132c1.66 1.345 1.907 3.791 0.552 5.463s-3.799 1.938-5.459 0.593c-1.66-1.345-1.907-3.791-0.552-5.463s3.799-1.938 5.459-0.593z"></path>
<path fill="#66a50e" style="fill: var(--color7, #66a50e)" d="M29.17 5.757c1.66 1.345 1.907 3.791 0.552 5.463s-3.799 1.938-5.459 0.593c-1.66-1.345-1.907-3.791-0.552-5.463s3.799-1.938 5.459-0.593z"></path>
</symbol>
<symbol id="icon-frame-43" viewBox="0 0 18 24">
<path fill="#ff02d1" style="fill: var(--color1, #ff02d1)" d="M-0.153 9.139c-1.001-0.787-1.169-2.243-0.376-3.252s2.248-1.188 3.249-0.4c1.001 0.787 1.169 2.243 0.376 3.252s-2.248 1.188-3.249 0.4z"></path>
<path fill="#ff1e00" style="fill: var(--color2, #ff1e00)" d="M4.262 11.797c-1.001-0.787-1.169-2.243-0.376-3.252s2.248-1.188 3.249-0.4c1.001 0.787 1.169 2.243 0.376 3.252s-2.248 1.188-3.249 0.4z"></path>
<path fill="#0eb0e6" style="fill: var(--color3, #0eb0e6)" d="M8.677 14.456c-1.001-0.787-1.169-2.243-0.376-3.252s2.248-1.188 3.249-0.4c1.001 0.787 1.169 2.243 0.376 3.252s-2.248 1.188-3.249 0.4z"></path>
<path fill="#0eb0e6" style="fill: var(--color3, #0eb0e6)" d="M17.293 14.845c0.434 1.197-0.192 2.522-1.398 2.96s-2.536-0.178-2.97-1.376c-0.434-1.197 0.192-2.522 1.398-2.96s2.536 0.178 2.97 1.376z"></path>
</symbol>
<symbol id="icon-cross" viewBox="0 0 32 32">
            <path d="M32 3.224l-3.224-3.224-12.776 12.776-12.776-12.776-3.224 3.224 12.776 12.776-12.776 12.776 3.224 3.224 12.776-12.776 12.776 12.776 3.224-3.224-12.776-12.776 12.776-12.776z"></path>
        </symbol>
  </defs>
</svg>
